<?xml version="1.0" encoding="UTF-8" standalone="no"?>
<!DOCTYPE svg PUBLIC "-//W3C//DTD SVG 1.1//EN" "http://www.w3.org/Graphics/SVG/1.1/DTD/svg11.dtd">
<svg width="100%" height="100%" viewBox="0 0 256 256" version="1.1" xmlns="http://www.w3.org/2000/svg" xmlns:xlink="http://www.w3.org/1999/xlink" xml:space="preserve" xmlns:serif="http://www.serif.com/" style="fill-rule:evenodd;clip-rule:evenodd;stroke-linejoin:round;stroke-miterlimit:2;">
    <g transform="matrix(0.858729,0,0,0.858729,18.0827,18.0827)">
        <circle cx="128" cy="128" r="114.048" style="fill:rgb(248,248,248);fill-opacity:0.65;"/>
    </g>
    <g transform="matrix(1.03547,0,0,1.03547,-54.0246,-38.846)">
        <path d="M175.79,54.297C234.754,54.297 282.625,102.168 282.625,161.131C282.625,220.095 234.754,267.966 175.79,267.966C116.827,267.966 68.956,220.095 68.956,161.131C68.956,102.168 116.827,54.297 175.79,54.297ZM175.79,75.764C222.906,75.764 261.158,114.016 261.158,161.131C261.158,208.247 222.906,246.499 175.79,246.499C128.675,246.499 90.423,208.247 90.423,161.131C90.423,114.016 128.675,75.764 175.79,75.764Z" style="fill:rgb(27,36,65);"/>
    </g>
    <g transform="matrix(3.1697e-17,-0.517651,1.13935,6.9765e-17,-17.8366,188.266)">
        <rect x="116.422" y="40.685" width="16.114" height="174.631" style="fill:rgb(27,36,65);"/>
    </g>
    <g transform="matrix(2.294e-17,-0.374638,1.13935,6.9765e-17,-17.8366,180.346)">
        <rect x="116.422" y="40.685" width="16.114" height="174.631" style="fill:rgb(27,36,65);"/>
    </g>
    <g transform="matrix(0.239322,-4.62223e-33,-1.74098e-32,1.13935,91.4075,-17.8366)">
        <rect x="116.422" y="40.685" width="16.114" height="174.631" style="fill:rgb(27,36,65);"/>
    </g>
    <g transform="matrix(0.239322,-4.62223e-33,-1.74098e-32,1.13935,105.141,-17.8366)">
        <rect x="116.422" y="40.685" width="16.114" height="174.631" style="fill:rgb(27,36,65);"/>
    </g>
    <g transform="matrix(4.55984e-17,-0.744679,1.13935,6.9765e-17,-17.8366,220.697)">
        <rect x="116.422" y="40.685" width="16.114" height="174.631" style="fill:rgb(29,42,81);"/>
    </g>
    <g transform="matrix(0.744679,0,0,1.12164,35.3034,-15.5701)">
        <rect x="116.422" y="40.685" width="16.114" height="174.631" style="fill:rgb(29,42,81);"/>
    </g>
    <g transform="matrix(1.06752,0,0,1.06752,-59.6599,-44.0114)">
        <path d="M175.79,54.297C234.754,54.297 282.625,102.168 282.625,161.131C282.625,220.095 234.754,267.966 175.79,267.966C116.827,267.966 68.956,220.095 68.956,161.131C68.956,102.168 116.827,54.297 175.79,54.297ZM175.79,75.382C223.117,75.382 261.54,113.805 261.54,161.131C261.54,208.458 223.117,246.881 175.79,246.881C128.464,246.881 90.041,208.458 90.041,161.131C90.041,113.805 128.464,75.382 175.79,75.382Z" style="fill:rgb(29,42,81);"/>
    </g>
</svg>
